<?xml version="1.0" encoding="UTF-8" standalone="no"?>
<!-- Created with Inkscape (http://www.inkscape.org/) -->

<svg
   xmlns:dc="http://purl.org/dc/elements/1.1/"
   xmlns:cc="http://creativecommons.org/ns#"
   xmlns:rdf="http://www.w3.org/1999/02/22-rdf-syntax-ns#"
   xmlns:svg="http://www.w3.org/2000/svg"
   xmlns="http://www.w3.org/2000/svg"
   xmlns:sodipodi="http://sodipodi.sourceforge.net/DTD/sodipodi-0.dtd"
   xmlns:inkscape="http://www.inkscape.org/namespaces/inkscape"
   width="581.21039"
   height="603.466"
   id="svg2"
   version="1.1"
   inkscape:version="0.48.4 r9939"
   sodipodi:docname="mexicanbird.svg">
  <defs
     id="defs4" />
  <sodipodi:namedview
     id="base"
     pagecolor="#ffffff"
     bordercolor="#666666"
     borderopacity="1.0"
     inkscape:pageopacity="0.0"
     inkscape:pageshadow="2"
     inkscape:zoom="0.49497475"
     inkscape:cx="461.01786"
     inkscape:cy="276.8207"
     inkscape:document-units="px"
     inkscape:current-layer="layer1"
     showgrid="false"
     inkscape:window-width="1400"
     inkscape:window-height="1001"
     inkscape:window-x="0"
     inkscape:window-y="25"
     inkscape:window-maximized="1"
     fit-margin-top="0"
     fit-margin-left="0"
     fit-margin-right="0"
     fit-margin-bottom="0" />
  <metadata
     id="metadata7">
    <rdf:RDF>
      <cc:Work
         rdf:about="">
        <dc:format>image/svg+xml</dc:format>
        <dc:type
           rdf:resource="http://purl.org/dc/dcmitype/StillImage" />
        <dc:title></dc:title>
      </cc:Work>
    </rdf:RDF>
  </metadata>
  <g
     inkscape:label="Layer 1"
     inkscape:groupmode="layer"
     id="layer1"
     transform="translate(-51.482557,-122.19615)">
    <path
       style="fill:#008080;stroke:#000000;stroke-opacity:1"
       d="m 611.72459,721.88158 c -26.02124,-29.34672 43.54132,-24.02744 12.16959,1.57943 -3.22755,2.63445 -8.74332,2.28471 -12.16959,-1.57943 z m -46.9812,-6.93805 c -23.71768,-26.57873 32.14003,-35.65472 20.9209,-3.81054 -2.61061,7.40991 -15.69494,9.66691 -20.9209,3.81054 z m -357.67197,-8.56547 c -30.72259,-17.50865 23.6406,-36.5428 14.49294,-8.42047 -1.94045,5.96547 -8.86368,11.62856 -14.49294,8.42047 z m -52.79368,-15.03224 c -25.12429,-22.38148 27.58968,-37.31311 19.85753,-5.17147 -1.92065,7.98392 -15.49884,9.05433 -19.85753,5.17147 z m 442.40925,-6.54577 c -31.32068,-24.22557 35.21828,-35.22018 16.9822,-1.38173 -2.8019,5.19913 -12.40796,4.91976 -16.9822,1.38173 z M 191.39733,663.10707 c -31.98959,-24.62135 33.2365,-38.16065 17.11397,-4.16583 -2.3892,5.03769 -11.2767,8.65859 -17.11397,4.16583 z m 311.97256,1.52206 c -29.21065,-13.53809 -30.26362,-52.60812 -41.8153,-79.26694 -5.19107,-27.1647 -27.63232,-49.27474 -43.14102,-67.55224 28.46309,-1.74237 54.96731,16.91024 78.29409,31.58056 29.36195,18.80559 62.75674,50.67762 52.48918,89.1446 -4.57537,19.3542 -27.61718,28.95154 -45.82695,26.09402 z m -84.7985,-7.28353 c -28.46047,-20.74628 -20.04501,-61.05188 -26.8631,-91.48341 1.85138,-14.47314 -32.99008,-57.84146 -1.0584,-41.30868 36.5838,22.34887 64.47176,63.24265 60.4457,107.53157 -2.37161,12.93214 -17.59946,34.73373 -32.5242,25.26052 z m -76.5564,-16.63744 c -29.14078,-19.0204 -15.31364,-56.30408 -11.04234,-83.97764 9.98218,-17.4652 -4.65564,-49.30673 2.48943,-60.0402 24.20219,14.64558 32.11991,44.05023 43.62618,68.1554 7.37825,25.95609 13.31729,67.12882 -19.98338,77.23725 -4.87075,0.91826 -10.95464,2.66932 -15.08989,-1.37481 z M 57.193907,627.07707 c -17.063989,-27.13532 12.19291,-54.36601 24.52937,-77.56833 13.567428,-25.64553 15.566521,-54.79607 10.925993,-82.9784 -5.22444,-30.73562 -2.371675,-63.34503 17.1825,-88.89834 13.46917,-16.74343 37.98673,-24.646 53.31441,-26.95556 -3.71707,-20.60919 -27.82849,-42.7876 -24.54611,-73.42873 -13.94146,-12.13591 -18.18772,-21.99023 -17.57094,-24.76648 0.67281,-3.02845 20.80186,-4.43903 38.55835,-20.92899 11.73445,-10.89746 31.38907,-8.83939 45.27229,-5.91266 16.12022,3.39831 30.3073,24.12263 38.85811,35.54929 24.03186,32.11439 17.33704,-38.48954 45.74012,-43.66848 45.59328,-8.31335 94.51039,-0.27776 135.86517,-24.17781 20.12008,-11.62795 35.30668,-32.62945 44.42746,-53.97314 12.4519,-29.13889 51.35444,-17.07127 36.31586,12.99275 -9.42007,16.67613 -1.21354,22.59043 9.5049,29.29307 -7.08821,15.51992 -43.33425,29.1811 -17.00389,44.35928 0.51701,12.82022 -36.60047,19.25378 -14.56835,37.76931 -7.89672,18.38154 -52.89529,7.81983 -35.83259,34.94472 -10.70051,12.62667 -55.30124,4.59769 -26.90827,26.42943 16.04194,26.29604 -60.53875,6.93649 -27.06454,34.79239 -17.02573,16.11804 -52.87581,3.10005 -70.91645,14.79927 -2.18499,31.74812 19.29784,59.46358 40.75484,80.21841 8.92924,9.23658 38.54712,24.72761 31.34913,36.02716 -26.78379,0.63393 -53.98623,-5.96304 -78.85753,-15.54776 -21.73925,-13.49317 -45.89594,-25.10362 -47.92068,10.35892 -21.88844,-12.5492 -17.22271,35.49251 -34.55889,46.47236 -8.35908,23.6189 -23.38935,-36.00181 -26.81695,-0.73263 -0.52549,17.77546 -7.58159,33.88068 -24.06374,25.05858 -5.75196,20.84308 -13.25993,58.33589 -35.7488,29.35504 -9.15808,10.91807 -19.93409,50.52167 -33.38368,21.72541 -13.70782,-20.28268 -34.935537,39.85781 -56.837093,19.39192 z M 277.01473,593.97188 c -26.58168,-24.45846 2.8135,-59.88644 13.33319,-85.26721 5.28937,-10.11235 6.54937,-44.32791 15.60809,-18.10271 12.56082,27.0889 19.55988,62.51073 3.82171,89.59449 -6.19809,10.16341 -20.7401,25.08963 -32.76299,13.77543 z m 222.32916,-62.47684 c -23.08393,-12.60991 -53.9249,-24.60425 -66.0383,-47.76941 25.13949,2.37919 52.33362,4.86002 75.29647,-8.83798 25.4056,-15.57813 65.54322,15.00355 44.44466,41.13598 -12.89718,15.01996 -35.15298,19.04507 -53.70283,15.47141 z m -48.7725,-59.23923 c -16.71087,-4.62079 -57.61815,-17.11152 -56.57612,-29.75678 29.03618,-5.56338 60.58498,-8.65593 83.73092,-29.13684 27.79257,-32.71247 70.67522,12.87762 35.97512,37.75515 -16.75348,14.98124 -40.71178,23.2364 -63.12992,21.13847 z m -51.6127,-52.44956 c -13.12378,-2.10964 -60.01386,-13.94373 -45.0587,-27.56994 28.49458,-4.8723 61.94104,-8.34848 77.41524,-36.63854 18.08395,-36.41755 71.08262,5.60254 40.7763,30.78796 -18.65848,20.74787 -44.23645,37.7728 -73.13284,33.42052 z m 104.4951,-98.32641 c -23.23176,-31.07091 42.77115,-35.90284 21.03177,-1.97065 -4.08285,6.37277 -15.84268,8.9107 -21.03177,1.97065 z m 52.788,-4.53393 c -25.18111,-15.43127 7.25466,-46.30409 17.10792,-16.19926 3.78573,11.56659 -5.41983,23.36185 -17.10792,16.19926 z m -20.7725,-49.87028 c -26.24087,-26.59807 35.35958,-34.4046 18.1588,-2.87924 -3.32007,6.08499 -13.39125,7.71168 -18.1588,2.87924 z"
       id="path2996"
       inkscape:connector-curvature="0"
       sodipodi:nodetypes="sssssssssssssssssscccccccccccccccccccccccsssssssccccccccccccccccccccccccccccccccccccccsssssssss" />
  </g>
</svg>
